<svg id="Decorative_icon" data-name="Decorative icon" xmlns="http://www.w3.org/2000/svg" width="16" height="16" viewBox="0 0 16 16">
  <rect id="Placement_Area" data-name="Placement Area" width="16" height="16" fill="red" opacity="0"/>
  <g id="Icon">
    <rect id="Canvas" width="16" height="16" fill="#464646" opacity="0"/>
    <path id="Path_10" data-name="Path 10" d="M13.783,2.75h-3.25V1.875A.871.871,0,0,0,9.667,1H5.333a.871.871,0,0,0-.867.875V2.75H1.217A.218.218,0,0,0,1,2.969v.438a.218.218,0,0,0,.217.219h.867L3.129,14.606A.435.435,0,0,0,3.562,15H11.44a.435.435,0,0,0,.433-.394L12.917,3.625h.867A.218.218,0,0,0,14,3.406V2.969A.218.218,0,0,0,13.783,2.75ZM4.928,12.813a.435.435,0,0,1-.461-.407h0L4,5.4a.434.434,0,1,1,.867-.059l.464,7a.436.436,0,0,1-.4.466Zm3.005-.437a.433.433,0,1,1-.867,0v-7a.433.433,0,1,1,.867,0ZM9.667,2.75H5.333V1.875H9.667Zm.867,9.655a.434.434,0,1,1-.867-.059l.464-7A.434.434,0,1,1,11,5.4Z" transform="translate(0.5)" fill="#161616"/>
  </g>
</svg>
