<svg id="Decorative_icon" data-name="Decorative icon" xmlns="http://www.w3.org/2000/svg" width="16" height="16" viewBox="0 0 16 16">
  <rect id="Placement_Area" data-name="Placement Area" width="16" height="16" fill="red" opacity="0"/>
  <g id="Icon">
    <rect id="Canvas" width="16" height="15.998" fill="#464646" opacity="0"/>
    <path id="Path_8" data-name="Path 8" d="M7.216,12.927a3.008,3.008,0,0,1-2.069.807H5.1a3.156,3.156,0,0,1-2.112-.85A2.648,2.648,0,0,1,2.9,8.966l.042-.04,7.779-7.291a2.2,2.2,0,0,1,1.371-.606,1.692,1.692,0,0,1,1.331.459,1.4,1.4,0,0,1,.489,1.257,2.307,2.307,0,0,1-.693,1.229l-5.19,4.85c-.334.313-.649.539-1.006.2s-.077-.643.23-.93l4.232-3.957a.286.286,0,0,0,.006-.418l-.3-.294a.337.337,0,0,0-.455-.013l-.007.007L6.381,7.514a1.426,1.426,0,0,0-.032,2.24c1.164,1.09,2.486-.242,2.486-.242L13.995,4.7A2.648,2.648,0,0,0,15,2.772,2.611,2.611,0,0,0,14.2.764,2.823,2.823,0,0,0,12.2,0,3.289,3.289,0,0,0,9.95.912L2.207,8.151a3.692,3.692,0,0,0,0,5.465,4.329,4.329,0,0,0,5.837,0l6.74-6.308a.288.288,0,0,0,0-.425l-.328-.308a.337.337,0,0,0-.455,0Z" transform="translate(0 0.626)" fill="#fff"/>
  </g>
</svg>
