<svg id="Decorative_icon" data-name="Decorative icon" xmlns="http://www.w3.org/2000/svg" width="16" height="16" viewBox="0 0 16 16">
  <rect id="Placement_Area" data-name="Placement Area" width="16" height="16" fill="red" opacity="0"/>
  <g id="Icon">
    <rect id="Canvas" width="16" height="16" fill="#eb3c36" opacity="0"/>
    <path id="Path_5" data-name="Path 5" d="M7.666,1.262.193,14.634a.447.447,0,0,0,.39.665H15.529a.447.447,0,0,0,.39-.665L8.446,1.262a.447.447,0,0,0-.78,0ZM8.949,13.289a.223.223,0,0,1-.223.223H7.386a.223.223,0,0,1-.223-.223v-1.34a.223.223,0,0,1,.223-.223h1.34a.223.223,0,0,1,.223.223Zm0-2.68a.223.223,0,0,1-.223.223H7.386a.223.223,0,0,1-.223-.223V5.248a.223.223,0,0,1,.223-.223h1.34a.223.223,0,0,1,.223.223Z" transform="translate(-0.015 -0.11)" fill="#eb3c36"/>
  </g>
</svg>
