<svg id="Decorative_icon" data-name="Decorative icon" xmlns="http://www.w3.org/2000/svg" width="18" height="18" viewBox="0 0 18 18">
  <rect id="Placement_Area" data-name="Placement Area" width="18" height="18" fill="red" opacity="0"/>
  <g id="Icon">
    <rect id="Canvas" width="18" height="18" fill="#464646" opacity="0"/>
    <path id="Path_43" data-name="Path 43" d="M9,1a8,8,0,1,0,8,8A8,8,0,0,0,9,1Zm5,8.5a.5.5,0,0,1-.5.5H10v3.5a.5.5,0,0,1-.5.5h-1a.5.5,0,0,1-.5-.5V10H4.5A.5.5,0,0,1,4,9.5v-1A.5.5,0,0,1,4.5,8H8V4.5A.5.5,0,0,1,8.5,4h1a.5.5,0,0,1,.5.5V8h3.5a.5.5,0,0,1,.5.5Z" fill="#464646"/>
  </g>
</svg>
